<svg width="1440" height="1457" viewBox="0 0 1440 1457" fill="none" xmlns="http://www.w3.org/2000/svg">
<g filter="url(#filter0_f_2641_2045)">
<path d="M335.684 940.465C149.738 940.465 -1.00024 793.511 -1.00024 612.233C-1.00024 430.955 149.738 284 335.684 284C521.63 284 672.369 430.955 672.369 612.233C672.369 793.511 521.63 940.465 335.684 940.465Z" fill="#C1BCFF"/>
<path d="M1102.32 1016.49C916.37 1016.49 765.631 869.531 765.631 688.253C765.631 506.975 916.37 360.021 1102.32 360.021C1288.26 360.021 1439 506.975 1439 688.253C1439 869.531 1288.26 1016.49 1102.32 1016.49Z" fill="#C1BCFF"/>
<path d="M1144.29 958.352C999.547 958.352 882.213 844.032 882.213 703.011C882.213 561.99 999.547 447.669 1144.29 447.669C1289.02 447.669 1406.36 561.99 1406.36 703.011C1406.36 844.032 1289.02 958.352 1144.29 958.352Z" fill="#FFD9DD"/>
<path d="M788.015 952.986C643.276 952.986 525.942 838.666 525.942 697.645C525.942 556.624 643.276 442.303 788.015 442.303C932.754 442.303 1050.09 556.624 1050.09 697.645C1050.09 838.666 932.754 952.986 788.015 952.986Z" fill="#407BFF"/>
<path d="M1026.85 1173.07C894.989 1173.07 788.094 1068.96 788.094 940.535C788.094 812.11 894.989 708 1026.85 708C1158.71 708 1265.61 812.11 1265.61 940.535C1265.61 1068.96 1158.71 1173.07 1026.85 1173.07Z" fill="#C1BCFF"/>
<path d="M798.543 961.071C666.681 961.071 559.786 856.961 559.786 728.535C559.786 600.11 666.681 496 798.543 496C930.405 496 1037.3 600.11 1037.3 728.535C1037.3 856.961 930.405 961.071 798.543 961.071Z" fill="#DEB5FF"/>
<path d="M366.927 1006.65C206.478 1006.65 76.408 879.914 76.408 723.58C76.408 567.247 206.478 440.514 366.927 440.514C527.376 440.514 657.445 567.247 657.445 723.58C657.445 879.914 527.376 1006.65 366.927 1006.65Z" fill="#F7FBFF" fill-opacity="0.9"/>
<path d="M1115.37 780.373C1067.47 780.373 1028.64 754.946 1028.64 723.581C1028.64 692.215 1067.47 666.788 1115.37 666.788C1163.28 666.788 1202.11 692.215 1202.11 723.581C1202.11 754.946 1163.28 780.373 1115.37 780.373Z" fill="#FFDA58"/>
<path d="M1115.37 758.908C1067.47 758.908 1028.64 733.482 1028.64 702.116C1028.64 670.751 1067.47 645.324 1115.37 645.324C1163.28 645.324 1202.11 670.751 1202.11 702.116C1202.11 733.482 1163.28 758.908 1115.37 758.908Z" fill="#FFE147"/>
</g>
<defs>
<filter id="filter0_f_2641_2045" x="-284.59" y="0.410004" width="2007.18" height="1456.25" filterUnits="userSpaceOnUse" color-interpolation-filters="sRGB">
<feFlood flood-opacity="0" result="BackgroundImageFix"/>
<feBlend mode="normal" in="SourceGraphic" in2="BackgroundImageFix" result="shape"/>
<feGaussianBlur stdDeviation="141.795" result="effect1_foregroundBlur_2641_2045"/>
</filter>
</defs>
</svg>
